Coordinates
version=1
nRows=16
nColumns=33
inDegrees=yes

Units are S.I. units (second, meters, Newtons, ...)
Angles are in degrees.

endheader
time	ground_thorax_rot_x	ground_thorax_rot_y	ground_thorax_rot_z	ground_thorax_tx	ground_thorax_ty	ground_thorax_tz	clav_prot_r	clav_elev_r	scapula_abduction_r	scapula_elevation_r	scapula_upward_rot_r	scapula_winging_r	shoulder_elv_r	plane_of_elev_r	axial_rot_r	elbow_flexion_r	pro_sup_r	wrist_flex_r	wrist_dev_r	clav_prot_l	clav_elev_l	scapula_abduction_l	scapula_elevation_l	scapula_upward_rot_l	scapula_winging_l	shoulder_elv_l	plane_of_elev_l	axial_rot_l	elbow_flexion_l	pro_sup_l	wrist_flex_l	wrist_dev_l
      3.97000000	    -39.61167007	     -5.31485175	     -4.98371565	     -0.05267197	    801.65709756	      5.17764306	      3.84269332	    -45.00000000	     45.00000000	    -45.00000000	     -5.24838917	  -3325.76319803	  -2637.88443635	    151.08445560	   -107.57942383	    729.58625527	      5.21185548	     16.71769526	     12.51196497	     13.52413699	     41.01223580	    -45.00000000	    -38.61935286	    -18.88386751	   1157.77115817	  -2454.26415798	     24.35552005	    -23.52517360	    724.51149188	     20.45945497	     12.68741382	    -17.70496571
      3.98000000	    -39.37922809	     -5.67172612	     -4.62497865	      0.79404084	    801.21704297	      4.97096704	      3.99086591	    -45.00000000	     45.00000000	    -45.00000000	     -5.87228938	  -3325.69122597	  -2637.81711581	    151.08521586	   -107.51064559	    729.42800829	      5.24391931	     16.52185125	     12.49786400	     14.15225317	     40.80108958	    -45.00000000	    -38.56951782	    -19.18438944	   1157.88331598	  -2454.42515731	     24.38218462	    -23.83633994	    724.56556830	     20.58587022	     12.58963206	    -17.61716026
      3.99000000	    -39.14663925	     -5.66047898	     -4.66536996	      1.26158151	    800.82847691	      4.67607595	      4.00106577	    -45.00000000	     45.00000000	    -45.00000000	     -5.86283955	  -3325.63553529	  -2637.84808926	    151.15696987	   -107.37748390	    729.23398456	      5.38568232	     16.46866757	     12.46554237	     13.93042256	     40.87399894	    -45.00000000	    -38.49035169	    -19.03557939	   1157.88649895	  -2454.41632510	     24.39519579	    -23.68575484	    724.56302612	     20.64039139	     12.43645475	    -17.69153517
      4.00000000	    -38.88447968	     -5.72739682	     -4.60924068	      1.36696576	    800.46873261	      4.29223612	      3.93875620	    -45.00000000	     45.00000000	    -45.00000000	     -5.88360505	  -3325.73760299	  -2637.79474808	    151.25674862	   -107.18987921	    729.23563007	      5.59775161	     16.43662877	     12.44660559	     13.94282038	     40.72721924	    -45.00000000	    -38.22580797	    -18.78988743	   1158.09879535	  -2454.41143335	     24.41447246	    -23.45537823	    724.54381370	     20.67894030	     12.35235574	    -17.72454902
      4.01000000	    -38.64728879	     -5.67820572	     -4.66869148	      1.13030494	    800.11735847	      3.83249126	      3.94975182	    -45.00000000	     45.00000000	    -45.00000000	     -5.79868454	  -3325.88233759	  -2637.85807323	    151.25258645	   -107.04011067	    728.99787696	      5.89061823	     16.41565387	     12.39482833	     13.74405167	     40.70808640	    -45.00000000	    -38.09664034	    -18.70793876	   1158.21557409	  -2454.33479740	     24.46012683	    -23.40887149	    724.56426356	     20.72044566	     12.35541719	    -17.81031768
      4.02000000	    -38.50269327	     -5.63495676	     -4.71771802	      0.56525124	    799.76644147	      3.31497273	      3.90217254	    -45.00000000	     45.00000000	    -45.00000000	     -5.86319186	  -3325.86858717	  -2637.80930616	    151.28364487	   -106.85088338	    728.86866117	      6.29387422	     16.37318152	     12.38711882	     13.71285341	     40.62535001	    -45.00000000	    -38.36489638	    -18.63325008	   1158.15664906	  -2454.61239339	     24.42778502	    -23.36522944	    724.54867312	     20.71576631	     12.36991938	    -17.84534213
      4.03000000	    -38.28473102	     -5.63232407	     -4.63219322	     -0.31231742	    799.41588160	      2.75817743	      3.89620510	    -45.00000000	     45.00000000	    -45.00000000	     -5.93946584	  -3326.13344134	  -2637.72857153	    151.32682016	   -106.74396512	    728.84215339	      6.70452842	     16.41992400	     12.42166561	     13.69533031	     40.57382878	    -45.00000000	    -38.21859932	    -18.58571688	   1158.30561639	  -2454.59349993	     24.48232462	    -23.19297380	    724.44404733	     20.60747753	     12.34758011	    -17.91414021
      4.04000000	    -38.14509081	     -5.63101233	     -4.67237211	     -1.48810411	    799.07065604	      2.17978659	      3.93449885	    -45.00000000	     45.00000000	    -45.00000000	     -6.04515394	  -3326.19720046	  -2637.72242995	    151.33641969	   -106.57440075	    728.66649170	      7.19774312	     16.39129185	     12.33195480	     13.64460470	     40.65028334	    -45.00000000	    -38.39540974	    -18.73270122	   1158.35454751	  -2454.62912130	     24.44114344	    -23.17700008	    724.55859158	     20.46535149	     12.36950591	    -17.97494354
      4.05000000	    -37.98842255	     -5.57993408	     -4.61464463	     -2.95444815	    798.73385337	      1.59133667	      3.90072688	    -45.00000000	     45.00000000	    -45.00000000	     -6.27158535	  -3326.58303971	  -2637.68414486	    151.24263887	   -106.44841131	    728.62365813	      7.68248363	     16.44348711	     12.39983389	     13.71711160	     40.70236008	    -45.00000000	    -38.34111371	    -18.74268199	   1158.48444085	  -2454.63351344	     24.52980958	    -23.06333544	    724.33228843	     20.28386370	     12.33543123	    -18.02448505
      4.06000000	    -37.81504607	     -5.57827963	     -4.58605883	     -4.70200559	    798.40938069	      1.00391645	      3.96104453	    -45.00000000	     45.00000000	    -45.00000000	     -6.57657835	  -3326.80697100	  -2637.58158445	    151.21717554	   -106.23088716	    728.57073257	      8.20298825	     16.46306781	     12.27680833	     13.64708960	     40.69049973	    -45.00000000	    -38.27425305	    -18.92916548	   1158.62244204	  -2454.50386137	     24.47854904	    -23.11984314	    724.38136646	     20.11872770	     12.37203612	    -18.07409976
      4.07000000	    -37.87982708	     -5.66749091	     -4.48761991	     -6.72445597	    798.09634020	      0.42403207	      4.04864581	    -45.00000000	     45.00000000	    -45.00000000	     -6.92002269	  -3326.91892487	  -2637.64392694	    151.36305778	   -105.97305597	    728.57209246	      8.80412401	     16.52095571	     12.29420717	     13.75033307	     40.80719920	    -45.00000000	    -38.71385516	    -19.27852119	   1158.72698128	  -2454.65085176	     24.37209092	    -23.27644103	    724.61391483	     19.91532305	     12.28966126	    -18.20939833
      4.08000000	    -37.85591075	     -5.76877640	     -4.29998539	     -9.02648980	    797.78975006	     -0.14665491	      4.13213493	    -45.00000000	     45.00000000	    -45.00000000	     -7.53080047	  -3327.13131942	  -2637.58061271	    151.38540637	   -105.86072642	    728.53761084	      9.45160518	     16.57405271	     12.22544805	     13.94031724	     41.10598663	    -45.00000000	    -38.90587965	    -19.80057855	   1158.82273982	  -2454.56718344	     24.32637834	    -23.26292372	    724.71379715	     19.68312449	     12.22917587	    -18.27893080
      4.09000000	    -37.79072099	     -5.82134478	     -4.12224866	    -11.60957659	    797.48518269	     -0.70714013	      4.25183375	    -45.00000000	     45.00000000	    -45.00000000	     -8.06682773	  -3327.43622322	  -2637.48838993	    151.37106251	   -105.65464356	    728.54446130	     10.11712756	     16.63791638	     12.18600535	     14.05337540	     41.16946420	    -45.00000000	    -39.02856678	    -20.21022280	   1158.96277966	  -2454.56774472	     24.27611142	    -23.31422052	    724.75387233	     19.49755383	     12.17262909	    -18.36115259
      4.10000000	    -37.74234718	     -5.98862180	     -3.92278252	    -14.47800559	    797.17823215	     -1.25800641	      4.43410989	    -45.00000000	     45.00000000	    -45.00000000	     -8.58716245	  -3327.57923171	  -2637.30762481	    151.53865639	   -105.36965310	    728.65671573	     10.82523962	     16.72085018	     12.07923064	     14.22687133	     41.37288737	    -45.00000000	    -39.11910170	    -20.91825725	   1159.08107942	  -2454.44704792	     24.22023312	    -23.48649301	    724.78776210	     19.35689800	     12.11252666	    -18.41654679
      4.11000000	    -37.68465199	     -6.00525629	     -3.81429512	    -17.63350775	    796.86745735	     -1.80052876	      4.77779135	    -45.00000000	     45.00000000	    -45.00000000	     -9.01921676	  -3327.82439207	  -2637.13085542	    151.62134995	   -105.02547465	    728.65376948	     11.60034314	     16.73901666	     11.92492862	     14.39183609	     41.47102929	    -45.00000000	    -39.22131271	    -21.52522539	   1159.21112619	  -2454.33783585	     24.25417677	    -24.01298775	    724.75429896	     19.29142422	     12.01357290	    -18.44164688
      4.12000000	    -37.65213371	     -6.02511565	     -3.69847591	    -21.08088524	    796.55429240	     -2.33686142	      5.05249981	    -45.00000000	     45.00000000	    -45.00000000	     -9.42444782	  -3328.19190662	  -2637.07574221	    151.66149601	   -104.65749268	    728.64748405	     12.40848707	     16.75805360	     11.81468467	     14.53099700	     41.51788623	    -45.00000000	    -39.39613820	    -22.02892883	   1159.41927801	  -2454.39588227	     24.18553673	    -24.66475005	    724.87031324	     19.23250805	     11.81100998	    -18.48112450
